<svg width="6" height="6" viewBox="0 0 6 6" fill="none" xmlns="http://www.w3.org/2000/svg">
<g clip-path="url(#clip0_1342_595)">
<path fill-rule="evenodd" clip-rule="evenodd" d="M5.68583 0.323744C5.75384 0.391762 5.77689 0.492732 5.74511 0.583523L3.99231 5.59152C3.95839 5.68843 3.86876 5.75481 3.76617 5.75899C3.66359 5.76318 3.56885 5.70432 3.52715 5.6105L2.56466 3.44491L0.39907 2.48242C0.30525 2.44072 0.24639 2.34598 0.250576 2.2434C0.254761 2.14081 0.321143 2.05118 0.418048 2.01726L5.42605 0.264462C5.51684 0.232684 5.61781 0.255726 5.68583 0.323744ZM3.05303 3.31066L3.72827 4.82995L4.90994 1.45375L3.05303 3.31066ZM4.55582 1.09963L1.17962 2.2813L2.69891 2.95654L4.55582 1.09963Z" fill="white"/>
</g>
<defs>
<clipPath id="clip0_1342_595">
<rect width="6.0096" height="6.0096" fill="white"/>
</clipPath>
</defs>
</svg>
